<svg id="Capa_1" style="fill:#fff;" enable-background="new 0 0 505.996 505.996" height="512" viewBox="0 0 505.996 505.996" width="512" xmlns="http://www.w3.org/2000/svg"><g><g><path d="m496.113 296.324h-9.964v-20.293c0-31.682-25.775-57.457-57.458-57.457-4.919 0-9.695.622-14.255 1.79-7.367-46.931-30.569-89.986-66.051-122.161-38.387-34.809-88.071-53.979-139.901-53.979-114.958 0-208.484 93.655-208.484 208.775 0 69.055 34.041 133.551 91.059 172.529 34.671 23.713 75.276 36.246 117.427 36.246 42.152 0 82.757-12.533 117.426-36.244 9.017-6.165 17.536-13.026 25.477-20.514v24.783c0 5.458 4.425 9.883 9.883 9.883h134.843c5.457 0 9.883-4.424 9.883-9.883v-123.592c-.002-5.458-4.428-9.883-9.885-9.883zm-29.729-20.292v20.293h-75.384v-20.293c0-20.783 16.908-37.692 37.692-37.692s37.692 16.909 37.692 37.692zm-359.864 136.039v-47.856c0-39.463 22.962-74.906 58.911-91.622 12.037 8.947 26.938 14.247 43.055 14.247 16.129 0 31.041-5.308 43.082-14.267 11.769 5.313 21.294 11.693 29.013 19.418 19.261 19.3 29.871 44.95 29.871 72.224v47.856c-30.403 19.602-65.544 29.937-101.966 29.937-36.421 0-71.561-10.335-101.966-29.937zm154.519-197.549c0 28.977-23.574 52.552-52.552 52.552h-.001c-28.977 0-52.552-23.575-52.552-52.552v-16.7c0-28.977 23.575-52.552 52.553-52.552s52.552 23.575 52.552 52.552zm69.178 182.913v-33.22c0-32.547-12.66-63.156-35.649-86.19-7.886-7.894-17.173-14.573-28.168-20.237 9.043-12.073 14.404-27.055 14.404-43.266v-16.7c0-39.876-32.442-72.318-72.319-72.318s-72.318 32.442-72.318 72.318v16.7c0 16.259 5.394 31.282 14.485 43.373-39.205 21.061-63.898 61.514-63.898 106.319v33.225c-42.26-35.745-66.989-88.438-66.989-144.441 0-104.219 84.659-189.009 188.72-189.009 95.527 0 175.329 70.667 187.217 165.024-14.788 10.407-24.467 27.603-24.467 47.018v20.293h-9.964c-5.457 0-9.883 4.424-9.883 9.883v70.251c-6.504 7.544-13.586 14.558-21.171 20.977zm156.014 22.48h-115.077v-103.825h115.077z"/><path d="m438.616 351.397h-19.848c-5.457 0-9.883 4.424-9.883 9.883 0 5.458 4.425 9.883 9.883 9.883h.041v3.563c0 5.458 4.425 9.883 9.883 9.883s9.883-4.424 9.883-9.883v-3.563h.041c5.457 0 9.883-4.424 9.883-9.883-.001-5.459-4.425-9.883-9.883-9.883z"/></g></g></svg>